<svg xmlns="http://www.w3.org/2000/svg" viewBox="0 0 512 512" width="512" height="512">
  <rect width="512" height="512" rx="85" fill="#1a73e8"/>
  <path fill="#ffffff" d="M128 128h256c21.3 0 42.7 19.2 42.7 42.7v170.6c0 23.5-21.4 42.7-42.7 42.7H128c-21.3 0-42.7-19.2-42.7-42.7V170.7c0-23.5 21.4-42.7 42.7-42.7z"/>
  <path fill="#1a73e8" d="M149.3 192h213.4v21.3H149.3zm0 53.3h160v21.4h-160zm0 53.4h213.4v21.3H149.3z"/>
  <circle cx="384" cy="384" r="85" fill="#34a853"/>
  <path fill="#ffffff" d="M362.7 384l16 16 32-32-10.7-10.7L378.7 378.7l-5.3-5.4z"/>
</svg>
